<?xml version="1.0" encoding="UTF-8"?>
<svg width="64" height="64" version="1.1" viewBox="0 0 16.933 16.933" xmlns="http://www.w3.org/2000/svg">
 <defs>
  <filter id="filter1099" x="-.025191" y="-.029088" width="1.0504" height="1.0582" color-interpolation-filters="sRGB">
   <feGaussianBlur stdDeviation="1.6827374"/>
  </filter>
 </defs>
 <g transform="matrix(.09833 0 0 .09833 31.19 65.969)" stroke-width="13.912">
  <g transform="translate(-238.36 -56.329)" fill="#666" filter="url(#filter1099)">
   <path d="m-12.56-562.8-19.829 34.344 19.829 34.345h39.654l-19.832-34.345 19.832-34.344zm39.654 0 19.832 34.344-19.829-34.344zm19.832 34.344-19.832 34.345h0.0031z"/>
   <path d="m-32.811-597.88-40.079 69.418 40.079 69.419h80.158l40.079-69.419-40.079-69.418-9.4718 16.406 30.607 53.013-30.607 53.013h-61.214l-30.607-53.013 30.607-53.013h42.27l4.7362-8.2031 4.7356-8.2026z"/>
  </g>
  <path d="m-211.27-619.13 4e-3 8e-3 5e-3 -8e-3zm9e-3 0 3e-3 5e-3h-2e-3l6e-3 0.0109 18.085 31.318-14.136-24.485 15.872 27.487-19.824-34.336zm-39.658 5e-3 -19.826 34.339 2e-3 3e-3 -2e-3 3e-3 19.826 34.339 19.827-34.339h-39.642l-2e-3 -3e-3 2e-3 -3e-3h39.642zm59.485 34.352-14.818 25.66 13.081-22.659-18.085 31.318-6e-3 0.0109h2e-3l-3e-3 5e-3h3e-3zm-19.827 34.336-5e-3 -8e-3 -4e-3 8e-3z" fill="#afc6e9"/>
  <g fill="#00aad4">
   <path d="m-191.45-584.78 4e-3 -8e-3 5e-3 8e-3zm9e-3 0 19.827-34.336-19.824 34.336zm-39.658-5e-3 -19.826-34.339 5e-3 -8e-3 5e-3 8e-3h39.642zm57.748-37.354-18.085-31.318-6e-3 -0.0109h3e-3l5e-3 8e-3z"/>
   <path d="m-191.45-584.79 4e-3 8e-3 5e-3 -8e-3zm9e-3 0 19.827 34.336-19.824-34.336zm-39.658 5e-3 -19.826 34.339 5e-3 8e-3 5e-3 -8e-3h39.642zm57.748 37.354-18.085 31.318-6e-3 0.0109h3e-3l5e-3 -8e-3z"/>
   <path d="m-271.17-654.21 9.4718 16.406h42.27l4.7361-8.2031 4.7356-8.2026z"/>
  </g>
  <path d="m-271.17-654.21-40.079 69.418 40.079 69.419h5.2e-4l9.4718-16.406-30.607-53.013 30.607-53.013-9.4718-16.406z" fill="#acf"/>
  <path d="m-261.7-531.77-9.4718 16.406h80.158l-9.4718-16.406-5.1e-4 5.1e-4h-61.214z" fill="#00aad4"/>
  <path d="m-191.01-654.21 40.079 69.418-40.079 69.419h-5.2e-4l-9.4718-16.406 30.607-53.013-30.607-53.013 9.4718-16.406z" fill="#216778"/>
 </g>
</svg>
